<?xml version="1.0" encoding="UTF-8" standalone="no"?>
<svg
   width="900px"
   height="900px"
   viewBox="0 0 900 900"
   version="1.1"
   xml:space="preserve"
   id="SVGRoot"
   inkscape:version="1.4 (86a8ad7, 2024-10-11)"
   sodipodi:docname="tf.svg"
   xmlns:inkscape="http://www.inkscape.org/namespaces/inkscape"
   xmlns:sodipodi="http://sodipodi.sourceforge.net/DTD/sodipodi-0.dtd"
   xmlns:xlink="http://www.w3.org/1999/xlink"
   xmlns="http://www.w3.org/2000/svg"
   xmlns:svg="http://www.w3.org/2000/svg"><defs
   id="defs2"><linearGradient
   id="linearGradient110"
   inkscape:collect="always"><stop
     style="stop-color:#fd0040;stop-opacity:1;"
     offset="0.29895365"
     id="stop110" /><stop
     style="stop-color:#e3003c;stop-opacity:1;"
     offset="0.29895365"
     id="stop112" /><stop
     style="stop-color:#e3003c;stop-opacity:1;"
     offset="0.68000001"
     id="stop113" /><stop
     style="stop-color:#b5002f;stop-opacity:1;"
     offset="0.68000001"
     id="stop111" /></linearGradient><pattern
   inkscape:collect="always"
   xlink:href="#Strips1_8"
   preserveAspectRatio="xMidYMid"
   id="pattern109"
   patternTransform="matrix(2.0020644,8.6718936,-8.6718936,2.0020644,0,0)"
   x="0"
   y="0" /><pattern
   inkscape:collect="always"
   patternUnits="userSpaceOnUse"
   width="9"
   height="1"
   patternTransform="translate(0,0) scale(2,2)"
   preserveAspectRatio="xMidYMid"
   id="Strips1_8"
   style="fill:#000000"
   inkscape:stockid="Stripes 07 (1:8)"
   inkscape:isstock="true"
   inkscape:label="Streifen 07 (1:8)">
      <rect
   style="stroke:none"
   x="0"
   y="-0.5"
   width="1"
   height="2"
   id="rect170" />
    </pattern><clipPath
   clipPathUnits="userSpaceOnUse"
   id="clipPath15"><rect
     style="fill:none;stroke:#000000;stroke-linecap:butt;stroke-linejoin:bevel;paint-order:stroke markers fill;stop-color:#000000"
     id="rect15-7"
     width="45.034248"
     height="38.955639"
     x="262.48285"
     y="121.00073" /></clipPath><clipPath
   clipPathUnits="userSpaceOnUse"
   id="clipPath27"><rect
     style="fill:none;stroke:#000000;stroke-width:0.999999;stroke-linecap:butt;stroke-linejoin:bevel;paint-order:stroke markers fill;stop-color:#000000"
     id="rect28-6"
     width="46.160622"
     height="39.922417"
     x="86.574379"
     y="420.06253" /></clipPath><linearGradient
   id="swatch85"
   inkscape:swatch="solid"><stop
     style="stop-color:#00349c;stop-opacity:1;"
     offset="0"
     id="stop85" /></linearGradient>
  
  
<clipPath
   clipPathUnits="userSpaceOnUse"
   id="clipPath4"><path
     d="M 0,660 H 660 V 0 H 0 Z"
     transform="translate(-330.47611,-245.50101)"
     id="path4" /></clipPath><clipPath
   clipPathUnits="userSpaceOnUse"
   id="clipPath6"><path
     d="M 0,660 H 660 V 0 H 0 Z"
     transform="translate(-542.21581,-562.38532)"
     id="path6-0" /></clipPath><clipPath
   clipPathUnits="userSpaceOnUse"
   id="clipPath8"><path
     d="M 0,660 H 660 V 0 H 0 Z"
     id="path8" /></clipPath><clipPath
   clipPathUnits="userSpaceOnUse"
   id="clipPath10"><path
     d="M 0,660 H 660 V 0 H 0 Z"
     transform="translate(-353.07321,-364.35891)"
     id="path10" /></clipPath><clipPath
   clipPathUnits="userSpaceOnUse"
   id="clipPath12"><path
     d="M 0,660 H 660 V 0 H 0 Z"
     transform="translate(-361.22751,-380.69971)"
     id="path12" /></clipPath><clipPath
   clipPathUnits="userSpaceOnUse"
   id="clipPath14"><path
     d="M 0,660 H 660 V 0 H 0 Z"
     transform="translate(-214.4287,-356.63571)"
     id="path14" /></clipPath><clipPath
   clipPathUnits="userSpaceOnUse"
   id="clipPath16"><path
     d="M 0,660 H 660 V 0 H 0 Z"
     transform="translate(-234.28081,-350.31791)"
     id="path16" /></clipPath><clipPath
   clipPathUnits="userSpaceOnUse"
   id="clipPath18"><path
     d="M 0,660 H 660 V 0 H 0 Z"
     transform="translate(-282.83401,-511.07371)"
     id="path18" /></clipPath><clipPath
   clipPathUnits="userSpaceOnUse"
   id="clipPath20"><path
     d="M 0,660 H 660 V 0 H 0 Z"
     transform="translate(-327.11381,-361.89941)"
     id="path20" /></clipPath><clipPath
   clipPathUnits="userSpaceOnUse"
   id="clipPath22"><path
     d="M 0,660 H 660 V 0 H 0 Z"
     transform="translate(-95.943805,-281.52051)"
     id="path22" /></clipPath><clipPath
   clipPathUnits="userSpaceOnUse"
   id="clipPath24"><path
     d="M 0,660 H 660 V 0 H 0 Z"
     transform="translate(-227.1235,-281.52051)"
     id="path24" /></clipPath><clipPath
   clipPathUnits="userSpaceOnUse"
   id="clipPath26"><path
     d="M 0,660 H 660 V 0 H 0 Z"
     transform="translate(-121.29051,-281.52051)"
     id="path26" /></clipPath><clipPath
   clipPathUnits="userSpaceOnUse"
   id="clipPath28"><path
     d="M 0,660 H 660 V 0 H 0 Z"
     transform="translate(-316.73341,-281.52051)"
     id="path28" /></clipPath><clipPath
   clipPathUnits="userSpaceOnUse"
   id="clipPath30"><path
     d="M 0,660 H 660 V 0 H 0 Z"
     transform="translate(-361.22751,-380.69971)"
     id="path30" /></clipPath><clipPath
   clipPathUnits="userSpaceOnUse"
   id="clipPath32"><path
     d="M 0,660 H 660 V 0 H 0 Z"
     transform="translate(-429.11131,-375.59131)"
     id="path32" /></clipPath><clipPath
   clipPathUnits="userSpaceOnUse"
   id="clipPath34"><path
     d="M 0,660 H 660 V 0 H 0 Z"
     transform="translate(-458.84571,-361.85641)"
     id="path34" /></clipPath><clipPath
   clipPathUnits="userSpaceOnUse"
   id="clipPath36"><path
     d="M 0,660 H 660 V 0 H 0 Z"
     transform="translate(-353.07321,-203.98731)"
     id="path36" /></clipPath><clipPath
   clipPathUnits="userSpaceOnUse"
   id="clipPath38"><path
     d="M 0,660 H 660 V 0 H 0 Z"
     transform="translate(-361.22751,-188.6914)"
     id="path38" /></clipPath><clipPath
   clipPathUnits="userSpaceOnUse"
   id="clipPath40"><path
     d="M 0,660 H 660 V 0 H 0 Z"
     transform="translate(-214.4287,-211.21581)"
     id="path40" /></clipPath><clipPath
   clipPathUnits="userSpaceOnUse"
   id="clipPath42"><path
     d="M 0,660 H 660 V 0 H 0 Z"
     transform="translate(-234.28081,-217.12891)"
     id="path42" /></clipPath><clipPath
   clipPathUnits="userSpaceOnUse"
   id="clipPath44"><path
     d="M 0,660 H 660 V 0 H 0 Z"
     transform="translate(-282.83401,-66.666002)"
     id="path44" /></clipPath><clipPath
   clipPathUnits="userSpaceOnUse"
   id="clipPath46"><path
     d="M 0,660 H 660 V 0 H 0 Z"
     transform="translate(-327.11381,-206.28711)"
     id="path46" /></clipPath><clipPath
   clipPathUnits="userSpaceOnUse"
   id="clipPath48"><path
     d="M 0,660 H 660 V 0 H 0 Z"
     transform="translate(-95.943805,-281.52051)"
     id="path48" /></clipPath><clipPath
   clipPathUnits="userSpaceOnUse"
   id="clipPath50"><path
     d="M 0,660 H 660 V 0 H 0 Z"
     transform="translate(-227.1235,-281.52051)"
     id="path50" /></clipPath><clipPath
   clipPathUnits="userSpaceOnUse"
   id="clipPath52"><path
     d="M 0,660 H 660 V 0 H 0 Z"
     transform="translate(-121.29051,-281.52051)"
     id="path52" /></clipPath><clipPath
   clipPathUnits="userSpaceOnUse"
   id="clipPath54"><path
     d="M 0,660 H 660 V 0 H 0 Z"
     transform="translate(-316.73341,-281.52051)"
     id="path54" /></clipPath><clipPath
   clipPathUnits="userSpaceOnUse"
   id="clipPath56"><path
     d="M 0,660 H 660 V 0 H 0 Z"
     transform="translate(-361.22751,-188.6914)"
     id="path56" /></clipPath><clipPath
   clipPathUnits="userSpaceOnUse"
   id="clipPath58"><path
     d="M 0,660 H 660 V 0 H 0 Z"
     transform="translate(-429.11131,-193.4736)"
     id="path58" /></clipPath><clipPath
   clipPathUnits="userSpaceOnUse"
   id="clipPath60"><path
     d="M 0,660 H 660 V 0 H 0 Z"
     transform="translate(-458.84571,-206.3281)"
     id="path60" /></clipPath><filter
   inkscape:label="Extract Channel"
   inkscape:menu="Image Paint and Draw"
   inkscape:menu-tooltip="Create a two colors lithographic effect"
   style="color-interpolation-filters:sRGB;"
   id="filter65"
   x="-0.039232668"
   y="-0.042149335"
   width="1.0732153"
   height="1.076132"><feTurbulence
     numOctaves="1"
     seed="0"
     type="fractalNoise"
     baseFrequency="0.1"
     result="result1"
     id="feTurbulence62" /><feGaussianBlur
     stdDeviation="4"
     result="result2"
     id="feGaussianBlur62" /><feDisplacementMap
     scale="10"
     yChannelSelector="B"
     xChannelSelector="R"
     in="SourceGraphic"
     in2="result2"
     result="fbSourceGraphic"
     id="feDisplacementMap62" /><feGaussianBlur
     result="result8"
     stdDeviation="0.01"
     in="fbSourceGraphic"
     id="feGaussianBlur63" /><feConvolveMatrix
     order="3 3"
     kernelMatrix="1 1 1 1 -8 1 1 1 1 "
     in="result8"
     divisor="1"
     targetX="1"
     targetY="1"
     preserveAlpha="true"
     result="result0"
     bias="0"
     id="feConvolveMatrix63" /><feColorMatrix
     values="1"
     in="result0"
     result="result1"
     type="luminanceToAlpha"
     id="feColorMatrix63" /><feComposite
     k2="2"
     in="result1"
     result="result2"
     operator="arithmetic"
     in2="result1"
     id="feComposite63" /><feGaussianBlur
     result="result7"
     in="result2"
     stdDeviation="0.5"
     id="feGaussianBlur64" /><feColorMatrix
     result="result9"
     values="1 0 0 0 0 0 1 0 0 0 0 0 1 0 0 0 0 0 5 0 "
     id="feColorMatrix64" /><feFlood
     flood-opacity="1"
     result="result10"
     flood-color="rgb(65,94,115)"
     id="feFlood64" /><feComposite
     in2="result9"
     in="result10"
     operator="in"
     result="result11"
     id="feComposite64" /><feComposite
     in2="result11"
     operator="in"
     id="feComposite65"
     result="fbSourceGraphic" /><feColorMatrix
     result="fbSourceGraphicAlpha"
     in="fbSourceGraphic"
     values="0 0 0 -1 0 0 0 0 -1 0 0 0 0 -1 0 0 0 0 1 0"
     id="feColorMatrix65" /><feMorphology
     id="feMorphology65"
     result="result1"
     radius="2.4"
     operator="dilate"
     in="fbSourceGraphic" /><feTurbulence
     id="feTurbulence65"
     baseFrequency="0.09 0.028"
     numOctaves="1" /><feColorMatrix
     id="feColorMatrix66"
     result="result2"
     values="2 0 0 0 0 0 2 0 0 0 0 0 0 0 0 0 0 0 1 0" /><feDisplacementMap
     id="feDisplacementMap66"
     result="result4"
     scale="10.319410319410318"
     yChannelSelector="G"
     xChannelSelector="R"
     in="result1"
     in2="result2" /><feFlood
     id="feFlood66"
     result="result3"
     flood-opacity="1"
     flood-color="rgb(255,159,54)" /><feMorphology
     id="feMorphology66"
     radius="3.8"
     result="result7"
     in="result4" /><feGaussianBlur
     id="feGaussianBlur66"
     result="result7"
     in="result7"
     stdDeviation="2.4" /><feComposite
     id="feComposite66"
     result="result5"
     in2="result4"
     in="result3"
     operator="in" /><feComposite
     id="feComposite67"
     operator="out"
     in2="result7" /><feOffset
     id="feOffset67"
     result="result6"
     dy="-7"
     dx="-4.5" /><feGaussianBlur
     id="feGaussianBlur67"
     result="result7"
     stdDeviation="4.8" /><feComposite
     id="feComposite68"
     in="fbSourceGraphic"
     in2="result6" /><feComposite
     id="feComposite69"
     in2="result7"
     result="fbSourceGraphic" /><feColorMatrix
     result="fbSourceGraphicAlpha"
     in="fbSourceGraphic"
     values="0 0 0 -1 0 0 0 0 -1 0 0 0 0 -1 0 0 0 0 1 0"
     id="feColorMatrix69" /><feGaussianBlur
     id="feGaussianBlur69"
     stdDeviation="0.01"
     in="fbSourceGraphic" /><feColorMatrix
     id="feColorMatrix70"
     values="0"
     result="fbSourceGraphic"
     type="hueRotate" /><feColorMatrix
     id="feColorMatrix71"
     result="fbSourceGraphic"
     in="fbSourceGraphic"
     values="0.21 0.72 0.072 0 0 0.21 0.72 0.072 0 0 0.21 0.72 0.072 0 0 0 0 0 50 0 " /><feComponentTransfer
     id="feComponentTransfer71"
     result="fbSourceGraphic"
     in="fbSourceGraphic"><feFuncR
       id="feFuncR71"
       type="discrete"
       tableValues="0 1 1" /><feFuncG
       id="feFuncG71"
       type="discrete"
       tableValues="0 1 1" /><feFuncB
       id="feFuncB71"
       type="discrete"
       tableValues="0 1 1" /></feComponentTransfer><feColorMatrix
     id="feColorMatrix72"
     values="0 0 0 0 0 0 0 0 0 0 0 0 0 0 0 -0.21 -0.72 -0.07 1 0 "
     in="fbSourceGraphic"
     result="result1" /><feFlood
     id="feFlood72"
     flood-color="rgb(144,7,7)"
     result="result3"
     flood-opacity="1" /><feBlend
     id="feBlend72"
     in2="fbSourceGraphic"
     mode="screen"
     in="result3"
     result="result4" /><feComposite
     id="feComposite72"
     in2="fbSourceGraphic"
     operator="in"
     in="result4"
     result="fbSourceGraphic" /><feColorMatrix
     result="fbSourceGraphicAlpha"
     in="fbSourceGraphic"
     values="0 0 0 -1 0 0 0 0 -1 0 0 0 0 -1 0 0 0 0 1 0"
     id="feColorMatrix73" /><feConvolveMatrix
     id="feConvolveMatrix73"
     in="fbSourceGraphic"
     kernelMatrix="0 250 0 250 -1045 250 0 250 0"
     order="3 3"
     result="convolve" /><feBlend
     id="feBlend73"
     in="convolve"
     in2="fbSourceGraphic"
     mode="multiply"
     result="blend" /><feTurbulence
     id="feTurbulence73"
     type="fractalNoise"
     baseFrequency="1 1"
     numOctaves="1"
     seed="1"
     result="turbulence" /><feColorMatrix
     id="feColorMatrix74"
     in="blend"
     type="luminanceToAlpha"
     result="colormatrix1" /><feComposite
     id="feComposite74"
     in="turbulence"
     in2="colormatrix1"
     k1="2.5"
     k2="1.3"
     k4="0"
     operator="arithmetic"
     result="composite1" /><feColorMatrix
     id="feColorMatrix75"
     in="composite1"
     values="1 0 0 0 0 0 1 0 0 0 0 0 1 0 0 0 0 0 10 -9 "
     result="colormatrix2" /><feGaussianBlur
     id="feGaussianBlur75"
     stdDeviation="0.5"
     result="blur" /><feFlood
     id="feFlood75"
     flood-color="rgb(99,89,46)"
     flood-opacity="1"
     result="flood1" /><feComposite
     id="feComposite75"
     in="flood1"
     in2="blur"
     operator="out"
     result="composite2" /><feFlood
     id="feFlood76"
     flood-color="rgb(255,255,255)"
     flood-opacity="1"
     result="flood2" /><feComposite
     id="feComposite76"
     in="flood2"
     in2="blur"
     operator="in"
     result="composite3" /><feComposite
     id="feComposite77"
     in="composite3"
     in2="composite2"
     k2="1"
     k3="1"
     operator="arithmetic"
     result="composite4" /><feComposite
     id="feComposite78"
     in2="fbSourceGraphic"
     operator="in"
     result="fbSourceGraphic" /><feColorMatrix
     result="fbSourceGraphicAlpha"
     in="fbSourceGraphic"
     values="0 0 0 -1 0 0 0 0 -1 0 0 0 0 -1 0 0 0 0 1 0"
     id="feColorMatrix78" /><feConvolveMatrix
     id="feConvolveMatrix78"
     in="fbSourceGraphic"
     kernelMatrix="0 250 0 250 -1045 250 0 250 0"
     order="3 3"
     result="convolve" /><feBlend
     id="feBlend78"
     in="convolve"
     in2="fbSourceGraphic"
     mode="multiply"
     result="blend" /><feTurbulence
     id="feTurbulence78"
     type="fractalNoise"
     baseFrequency="1 1"
     numOctaves="1"
     seed="1"
     result="turbulence" /><feColorMatrix
     id="feColorMatrix79"
     in="blend"
     type="luminanceToAlpha"
     result="colormatrix1" /><feComposite
     id="feComposite79"
     in="turbulence"
     in2="colormatrix1"
     k1="2.5"
     k2="1.3"
     k4="0"
     operator="arithmetic"
     result="composite1" /><feColorMatrix
     id="feColorMatrix80"
     in="composite1"
     values="1 0 0 0 0 0 1 0 0 0 0 0 1 0 0 0 0 0 10 -9 "
     result="colormatrix2" /><feGaussianBlur
     id="feGaussianBlur80"
     stdDeviation="0.5"
     result="blur" /><feFlood
     id="feFlood80"
     flood-color="rgb(99,89,46)"
     flood-opacity="1"
     result="flood1" /><feComposite
     id="feComposite80"
     in="flood1"
     in2="blur"
     operator="out"
     result="composite2" /><feFlood
     id="feFlood81"
     flood-color="rgb(255,255,255)"
     flood-opacity="1"
     result="flood2" /><feComposite
     id="feComposite81"
     in="flood2"
     in2="blur"
     operator="in"
     result="composite3" /><feComposite
     id="feComposite82"
     in="composite3"
     in2="composite2"
     k2="1"
     k3="1"
     operator="arithmetic"
     result="composite4" /><feComposite
     id="feComposite83"
     in2="fbSourceGraphic"
     operator="in"
     result="fbSourceGraphic" /><feColorMatrix
     result="fbSourceGraphicAlpha"
     in="fbSourceGraphic"
     values="0 0 0 -1 0 0 0 0 -1 0 0 0 0 -1 0 0 0 0 1 0"
     id="feColorMatrix83" /><feColorMatrix
     id="feColorMatrix84"
     in="fbSourceGraphic"
     values="0 0 0 0 1 0 0 0 0 0 0 0 0 0 0 1 0 0 0 0 0 "
     result="colormatrix" /><feBlend
     id="feBlend84"
     in2="BackgroundImage"
     mode="multiply"
     result="blend" /></filter><pattern
   patternUnits="userSpaceOnUse"
   width="857.14284"
   height="857.14284"
   patternTransform="translate(26.3161,17.71104)"
   preserveAspectRatio="xMidYMid"
   id="pattern94"
   inkscape:label="pattern94"><path
     d="M 428.57142,0 0,428.57142 Z M 0,428.57142 428.57142,0 857.14284,428.57142 428.57142,857.14284 Z m 857.14284,0 -428.57142,428.57142 428.57142,-428.57142"
     id="path85-1"
     style="display:inline;fill:#d94242;fill-opacity:1;stroke-width:2"
     sodipodi:nodetypes="ccccccccccccc" /></pattern><linearGradient
   inkscape:collect="always"
   xlink:href="#linearGradient110"
   id="linearGradient111"
   x1="358.48019"
   y1="28.69515"
   x2="551.29535"
   y2="863.86932"
   gradientUnits="userSpaceOnUse"
   spreadMethod="pad" /></defs>
<sodipodi:namedview
   pagecolor="#a9a9a9"
   bordercolor="#292929"
   borderopacity="1"
   inkscape:showpageshadow="2"
   inkscape:pageopacity="0.0"
   inkscape:pagecheckerboard="0"
   inkscape:deskcolor="#232323"
   id="namedview1"
   inkscape:zoom="0.67175144"
   inkscape:cx="564.19678"
   inkscape:cy="438.4062"
   inkscape:window-width="1920"
   inkscape:window-height="1057"
   inkscape:window-x="1912"
   inkscape:window-y="-8"
   inkscape:window-maximized="1"
   inkscape:current-layer="layer2" />
<style
   type="text/css"
   id="style1">
g.prefab path {
  vector-effect:non-scaling-stroke;
  -inkscape-stroke:hairline;
  fill: none;
  fill-opacity: 1;
  stroke-opacity: 1;
  stroke: #00349c;
}
</style>

<g
   inkscape:groupmode="layer"
   id="layer2"
   inkscape:label="Diamond"
   style="display:inline"
   sodipodi:insensitive="true"><path
     id="path6"
     style="display:inline;vector-effect:non-scaling-stroke;fill:url(#linearGradient111);fill-opacity:1;stroke:none;stroke-width:2;-inkscape-stroke:hairline"
     d="M 454.88672 17.710938 L 26.316406 446.2832 L 454.88672 874.85352 L 883.45898 446.2832 L 454.88672 17.710938 z " /></g><g
   inkscape:label="Stripes"
   style="display:inline;fill:#ffffff;stroke:#000000;stroke-width:2"
   class="prefab"
   id="g2"
   transform="translate(-4.8634211e-6)"
   sodipodi:insensitive="true">
  <path
   id="rect94"
   style="display:inline;fill:url(#pattern109);fill-opacity:1;stroke:none"
   d="M 454.88672,17.710938 26.316406,446.2832 454.88672,874.85352 883.45898,446.2832 Z"
   transform="translate(4.8634211e-6)" /><path
   d="M 454.88752,17.71104 883.45894,446.28246 454.88752,874.85388 26.3161,446.28246 Z m 0,0 L 26.3161,446.28246 97.74467,517.71103 526.31609,89.13961 Z M 597.74466,160.56818 169.17324,589.1396 240.60181,660.56817 669.17323,231.99675 Z M 740.6018,303.42532 312.03038,731.99674 383.45895,803.42531 812.03037,374.85389 Z M 26.3161,446.28246 454.88752,17.71104 883.45894,446.28246 454.88752,874.85388 Z m 0,0 428.57142,428.57142 71.42857,-71.42857 L 97.74467,374.85389 Z M 169.17324,303.42532 597.74466,731.99674 669.17323,660.56817 240.60181,231.99675 Z M 312.03038,160.56818 740.6018,589.1396 812.03037,517.71103 383.45895,89.13961 Z M 452.92223,446.28246 H 883.45894 L 454.88752,874.85388 Z m -426.60613,0 428.57142,-428.57142 v 428.57142 z"
   id="path1"
   style="display:none" />
  
</g><g
   inkscape:groupmode="layer"
   id="layer3"
   inkscape:label="Iceberg"
   transform="matrix(3.1914089,0,0,3.1914089,-983.41386,-966.134)"
   style="display:inline"
   sodipodi:insensitive="true"><g
     id="group-MC0"
     transform="matrix(0.12374053,0,0,0.08882998,394.859,413.88332)"><path
       id="path2-4"
       d="M 0.414,0 H 660 V 660 H 0.414 Z"
       style="fill:#9adcc7;fill-opacity:1;fill-rule:nonzero;stroke:none"
       transform="matrix(1.3333333,0,0,-1.3333333,0,880)" /><path
       id="path3-8"
       d="m 0,0 c 97.806,0 177.579,79.772 177.579,177.581 0,97.808 -79.773,177.58 -177.579,177.58 -97.809,0 -177.58,-79.772 -177.58,-177.58 C -177.58,79.772 -97.809,0 0,0"
       style="fill:#a8e1d0;fill-opacity:1;fill-rule:evenodd;stroke:none"
       transform="matrix(1.3333333,0,0,-1.3333333,440.6348,552.66533)"
       clip-path="url(#clipPath4)" /><path
       id="path5-8"
       d="m 0,0 -241.586,-8.785 279.235,-11.295 28.865,-44.551 -246.606,-11.923 251.626,-7.53 8.785,-61.494 -219.624,-10.667 208.956,-14.433 35.766,63.378 L 25.1,4.392 Z m -439.246,-36.394 271.077,-4.393 -288.019,-14.432 7.53,-59.612 353.278,-10.04 -380.888,-15.059 13.178,107.301 z"
       style="fill:#9adcc7;fill-opacity:1;fill-rule:evenodd;stroke:none"
       transform="matrix(1.3333333,0,0,-1.3333333,722.9544,130.15293)"
       clip-path="url(#clipPath6)" /><path
       id="path7"
       d="m 0.414,-0.121 h 660.122 v 355.16 H 0.414 Z"
       style="fill:#75c7b0;fill-opacity:1;fill-rule:evenodd;stroke:none"
       transform="matrix(1.3333333,0,0,-1.3333333,0,880)"
       clip-path="url(#clipPath8)" /><path
       id="path9"
       d="m 0,0 23.819,47.736 52.219,-36.504 44.587,5.264 91.307,-99.334 H 33.284 Z"
       style="fill:#d0efe6;fill-opacity:1;fill-rule:evenodd;stroke:none"
       transform="matrix(1.3333333,0,0,-1.3333333,470.76427,394.18813)"
       clip-path="url(#clipPath10)" /><path
       id="path11"
       d="m 0,0 12.611,4.368 50.998,-54.406 21.072,0.703 70.237,-49.844 H 37.958 Z"
       style="fill:#9adcc7;fill-opacity:1;fill-rule:evenodd;stroke:none"
       transform="matrix(1.3333333,0,0,-1.3333333,481.63667,372.4004)"
       clip-path="url(#clipPath12)" /><path
       id="path13"
       d="M 0,0 68.405,154.438 206.437,-75.115 H 57.718 Z"
       style="fill:#ffffff;fill-opacity:1;fill-rule:evenodd;stroke:none"
       transform="matrix(1.3333333,0,0,-1.3333333,285.90493,404.48573)"
       clip-path="url(#clipPath14)" /><path
       id="path15"
       d="m 0,0 29.62,58.616 4.276,-78.975 z"
       style="fill:#9adcc7;fill-opacity:1;fill-rule:evenodd;stroke:none"
       transform="matrix(1.3333333,0,0,-1.3333333,312.3744,412.90947)"
       clip-path="url(#clipPath16)" /><path
       id="path17"
       d="m 0,0 -9.465,-85.994 53.745,-63.18 4.886,-80.379 h 88.866 z"
       style="fill:#d0efe6;fill-opacity:1;fill-rule:evenodd;stroke:none"
       transform="matrix(1.3333333,0,0,-1.3333333,377.112,198.5684)"
       clip-path="url(#clipPath18)" /><path
       id="path19"
       d="M 0,0 59.244,-80.379 H 4.886 Z"
       style="fill:#9adcc7;fill-opacity:1;fill-rule:evenodd;stroke:none"
       transform="matrix(1.3333333,0,0,-1.3333333,436.15173,397.46747)"
       clip-path="url(#clipPath20)" /><path
       id="path21"
       d="M 0,0 97.763,103.194 159.613,71.663 260.367,0 H 126.192 Z"
       style="fill:#ffffff;fill-opacity:1;fill-rule:evenodd;stroke:none"
       transform="matrix(1.3333333,0,0,-1.3333333,127.92507,504.63933)"
       clip-path="url(#clipPath22)" /><path
       id="path23"
       d="M 0,0 -33.417,103.194 28.433,71.663 129.187,0 Z"
       style="fill:#d0efe6;fill-opacity:1;fill-rule:evenodd;stroke:none"
       transform="matrix(1.3333333,0,0,-1.3333333,302.83133,504.63933)"
       clip-path="url(#clipPath24)" /><path
       id="path25"
       d="M 0,0 46.722,51.948 40.31,17.55 75.123,0 Z"
       style="fill:#d0efe6;fill-opacity:1;fill-rule:evenodd;stroke:none"
       transform="matrix(1.3333333,0,0,-1.3333333,161.72067,504.63933)"
       clip-path="url(#clipPath26)" /><path
       id="path27"
       d="M 0,0 -93.446,56.862 -99.157,29.483 -89.61,0 h 28.227 l 0.46,10.705 L -17.714,0 Z"
       style="fill:#9adcc7;fill-opacity:1;fill-rule:evenodd;stroke:none"
       transform="matrix(1.3333333,0,0,-1.3333333,422.3112,504.63933)"
       clip-path="url(#clipPath28)" /><path
       id="path29"
       d="M 0,0 20.551,21.391 36.14,17.083 15.665,31.395 Z"
       style="fill:#ffffff;fill-opacity:1;fill-rule:evenodd;stroke:none"
       transform="matrix(1.3333333,0,0,-1.3333333,481.63667,372.4004)"
       clip-path="url(#clipPath30)" /><path
       id="path31"
       d="M 0,0 49.132,0.318 36.606,12.942 Z"
       style="fill:#ffffff;fill-opacity:1;fill-rule:evenodd;stroke:none"
       transform="matrix(1.3333333,0,0,-1.3333333,572.1484,379.2116)"
       clip-path="url(#clipPath32)" /><path
       id="path33"
       d="M 0,0 2.139,-19.654 57.108,-58.266 Z"
       style="fill:#9adcc7;fill-opacity:1;fill-rule:evenodd;stroke:none"
       transform="matrix(1.3333333,0,0,-1.3333333,611.79427,397.5248)"
       clip-path="url(#clipPath34)" /><path
       id="path35"
       d="m 0,0 23.819,-44.681 52.219,34.167 44.587,-4.928 91.307,92.975 H 33.284 Z"
       style="fill:#85d3bb;fill-opacity:1;fill-rule:evenodd;stroke:none"
       transform="matrix(1.3333333,0,0,-1.3333333,470.76427,608.01693)"
       clip-path="url(#clipPath36)" /><path
       id="path37"
       d="m 0,0 12.611,-4.089 50.998,50.922 21.072,-0.657 70.237,46.653 H 37.958 Z"
       style="fill:#75c7b0;fill-opacity:1;fill-rule:evenodd;stroke:none"
       transform="matrix(1.3333333,0,0,-1.3333333,481.63667,628.41147)"
       clip-path="url(#clipPath38)" /><path
       id="path39"
       d="M 0,0 68.405,-144.55 206.437,70.305 H 57.718 Z"
       style="fill:#a3dfcc;fill-opacity:1;fill-rule:evenodd;stroke:none"
       transform="matrix(1.3333333,0,0,-1.3333333,285.90493,598.37893)"
       clip-path="url(#clipPath40)" /><path
       id="path41"
       d="m 0,0 29.62,-54.864 4.276,73.918 z"
       style="fill:#75c7b0;fill-opacity:1;fill-rule:evenodd;stroke:none"
       transform="matrix(1.3333333,0,0,-1.3333333,312.3744,590.4948)"
       clip-path="url(#clipPath42)" /><path
       id="path43"
       d="m 0,0 -9.465,80.487 53.745,59.134 4.886,75.234 h 88.866 z"
       style="fill:#85d3bb;fill-opacity:1;fill-rule:evenodd;stroke:none"
       transform="matrix(1.3333333,0,0,-1.3333333,377.112,791.112)"
       clip-path="url(#clipPath44)" /><path
       id="path45"
       d="M 0,0 59.244,75.233 H 4.886 Z"
       style="fill:#9adcc7;fill-opacity:1;fill-rule:evenodd;stroke:none"
       transform="matrix(1.3333333,0,0,-1.3333333,436.15173,604.95053)"
       clip-path="url(#clipPath46)" /><path
       id="path47"
       d="m 0,0 97.763,-96.587 61.85,29.514 L 260.367,0 H 126.192 Z"
       style="fill:#a3dfcc;fill-opacity:1;fill-rule:evenodd;stroke:none"
       transform="matrix(1.3333333,0,0,-1.3333333,127.92507,504.63933)"
       clip-path="url(#clipPath48)" /><path
       id="path49"
       d="M 0,0 -33.417,-96.587 28.433,-67.073 129.187,0 Z"
       style="fill:#85d3bb;fill-opacity:1;fill-rule:evenodd;stroke:none"
       transform="matrix(1.3333333,0,0,-1.3333333,302.83133,504.63933)"
       clip-path="url(#clipPath50)" /><path
       id="path51"
       d="M 0,0 46.722,-48.622 40.31,-16.427 75.123,0 Z"
       style="fill:#85d3bb;fill-opacity:1;fill-rule:evenodd;stroke:none"
       transform="matrix(1.3333333,0,0,-1.3333333,161.72067,504.63933)"
       clip-path="url(#clipPath52)" /><path
       id="path53"
       d="M 0,0 -93.446,-53.223 -99.157,-27.596 -89.61,0 h 28.227 l 0.46,-10.022 L -17.714,0 Z"
       style="fill:#75c7b0;fill-opacity:1;fill-rule:evenodd;stroke:none"
       transform="matrix(1.3333333,0,0,-1.3333333,422.3112,504.63933)"
       clip-path="url(#clipPath54)" /><path
       id="path55"
       d="M 0,0 20.551,-20.021 36.14,-15.989 15.665,-29.385 Z"
       style="fill:#a3dfcc;fill-opacity:1;fill-rule:evenodd;stroke:none"
       transform="matrix(1.3333333,0,0,-1.3333333,481.63667,628.41147)"
       clip-path="url(#clipPath56)" /><path
       id="path57"
       d="M 0,0 49.132,-0.301 36.606,-12.115 Z"
       style="fill:#a3dfcc;fill-opacity:1;fill-rule:evenodd;stroke:none"
       transform="matrix(1.3333333,0,0,-1.3333333,572.1484,622.0352)"
       clip-path="url(#clipPath58)" /><path
       id="path59"
       d="M 0,0 2.139,18.398 57.108,54.535 Z"
       style="fill:#75c7b0;fill-opacity:1;fill-rule:evenodd;stroke:none"
       transform="matrix(1.3333333,0,0,-1.3333333,611.79427,604.89587)"
       clip-path="url(#clipPath60)" /></g></g><g
   inkscape:groupmode="layer"
   id="layer1"
   inkscape:label="File"
   transform="matrix(7.431805,0,0,7.431805,-2886.8804,-2894.3122)"
   style="display:inline"
   sodipodi:insensitive="true"><g
     id="g6"
     transform="translate(418.99971,423.74974)"><path
       id="path1720"
       sodipodi:nodetypes="ccccccccc"
       style="color:#000000;display:inline;fill:none;stroke:#ffffff;stroke-width:7.8239;stroke-linecap:round;stroke-linejoin:round"
       transform="matrix(1.0385,0,0,1.0385,-1.1544,-1.1544)"
       d="m 8.0407,12.848 h 43.918 c 1.339,0 2.417,1.135 2.417,2.545 v 29.214 c 0,1.41 -1.078,2.545 -2.417,2.545 H 8.0407 c -1.3391,0 -2.417,-1.135 -2.417,-2.545 V 15.393 c 0,-1.41 1.0779,-2.545 2.4167,-2.545 z" /><path
       id="path1093"
       sodipodi:nodetypes="ccccccc"
       style="color:#000000;display:inline;fill:#ffffff;stroke:#ffffff;stroke-width:8.125;stroke-linecap:round;stroke-linejoin:round"
       d="m 7.1875,4.6875 c -1.3904,0 -2.5,1.1921 -2.5,2.6563 v 7.8122 h 25.5 V 7.3438 c 0,-1.4642 -1.11,-2.6563 -2.5,-2.6563 z" /><path
       id="path1092"
       sodipodi:nodetypes="ccccccc"
       style="color:#000000;display:inline;fill:#ffffff;stroke:#000000;stroke-width:3.125;stroke-linecap:round;stroke-linejoin:round"
       d="m 15.821,4.6881 h 11.858 c 1.391,0 2.51,1.1788 2.51,2.6429 v 7.838 H 13.311 V 7.331 c 0,-1.4641 1.119,-2.6429 2.51,-2.6429 z" /><path
       id="path1091"
       sodipodi:nodetypes="ccccccc"
       style="color:#000000;display:inline;fill:#ffffff;stroke:#000000;stroke-width:3.125;stroke-linecap:round;stroke-linejoin:round"
       d="m 7.1957,4.6881 h 8.1083 c 1.391,0 2.51,1.1788 2.51,2.6429 v 7.838 H 4.686 V 7.331 c 0,-1.4641 1.1194,-2.6429 2.5097,-2.6429 z" /><path
       id="path1719"
       sodipodi:nodetypes="ccccccccc"
       style="color:#000000;display:inline;fill:none;fill-opacity:1;stroke:#000000;stroke-width:3.0092;stroke-linecap:round;stroke-linejoin:round"
       transform="matrix(1.0385,0,0,1.0385,-1.1544,-1.1544)"
       d="m 8.0407,12.848 h 43.918 c 1.339,0 2.417,1.135 2.417,2.545 v 29.214 c 0,1.41 -1.078,2.545 -2.417,2.545 H 8.0407 c -1.3391,0 -2.417,-1.135 -2.417,-2.545 V 15.393 c 0,-1.41 1.0779,-2.545 2.4167,-2.545 z" /></g></g><g
   inkscape:label="Diamond Target"
   style="display:none;fill:#ffffff;stroke:#000000;stroke-width:2"
   class="prefab"
   id="g62"
   sodipodi:insensitive="true">
  <path
   d="M 454.88752,17.71104 883.45894,446.28246 454.88752,874.85388 26.3161,446.28246 Z m 0,0 L 26.3161,446.28246 97.74467,517.71103 526.31609,89.13961 Z M 597.74466,160.56818 169.17324,589.1396 240.60181,660.56817 669.17323,231.99675 Z M 740.6018,303.42532 312.03038,731.99674 383.45895,803.42531 812.03037,374.85389 Z M 26.3161,446.28246 454.88752,17.71104 883.45894,446.28246 454.88752,874.85388 Z m 0,0 428.57142,428.57142 71.42857,-71.42857 L 97.74467,374.85389 Z M 169.17324,303.42532 597.74466,731.99674 669.17323,660.56817 240.60181,231.99675 Z M 312.03038,160.56818 740.6018,589.1396 812.03037,517.71103 383.45895,89.13961 Z M 452.92223,446.28246 H 883.45894 L 454.88752,874.85388 Z m -426.60613,0 428.57142,-428.57142 v 428.57142 z"
   id="path61"
   style="display:inline" />
  <path
   d="M 454.88751,143.23754 A 303.04575,303.04575 0 0 0 151.8426,446.28245 303.04575,303.04575 0 0 0 454.88751,749.32737 303.04575,303.04575 0 0 0 757.93243,446.28245 303.04575,303.04575 0 0 0 454.88751,143.23754 Z m 0,101.01366 A 202.0305,202.0305 0 0 1 656.91876,446.28245 202.0305,202.0305 0 0 1 454.88751,648.3137 202.0305,202.0305 0 0 1 252.85627,446.28245 202.0305,202.0305 0 0 1 454.88751,244.2512 Z m 0,101.01564 A 101.01525,101.01525 0 0 0 353.8719,446.28245 101.01525,101.01525 0 0 0 454.88751,547.29806 101.01525,101.01525 0 0 0 555.90314,446.28245 101.01525,101.01525 0 0 0 454.88751,345.26684 Z"
   id="path62"
   style="display:inline" />
</g></svg>
